<?xml version="1.0" standalone="no"?>
<!DOCTYPE svg PUBLIC "-//W3C//DTD SVG 20010904//EN"
 "http://www.w3.org/TR/2001/REC-SVG-20010904/DTD/svg10.dtd">
<svg version="1.0" xmlns="http://www.w3.org/2000/svg"
 width="512.000000pt" height="512.000000pt" viewBox="0 0 512.000000 512.000000"
 preserveAspectRatio="xMidYMid meet">
<metadata>
Created by potrace 1.11, written by Peter Selinger 2001-2013
</metadata>
<g transform="translate(0.000000,512.000000) scale(0.100000,-0.100000)"
fill="#000000" stroke="none">
<path d="M2419 4647 c-2 -3 -40 -7 -84 -11 -44 -3 -91 -8 -105 -11 -14 -3 -38
-8 -55 -11 -59 -10 -231 -55 -290 -76 -304 -105 -568 -270 -790 -493 -145
-145 -214 -229 -310 -380 -38 -60 -155 -286 -155 -300 0 -4 -7 -21 -14 -38
-53 -116 -104 -320 -135 -547 -9 -65 -7 -423 2 -470 3 -14 8 -43 11 -65 13
-92 56 -268 88 -360 154 -444 440 -811 835 -1074 51 -34 103 -66 115 -71 13
-6 52 -26 88 -45 71 -39 252 -112 340 -138 80 -24 274 -64 355 -74 39 -4 147
-8 240 -8 234 0 322 10 520 60 72 18 171 49 220 70 50 20 95 37 100 38 24 6
207 104 280 150 260 165 507 414 665 672 213 348 314 723 305 1135 -5 214 -12
272 -56 460 -137 577 -545 1091 -1079 1360 -47 23 -93 46 -103 51 -116 60
-385 135 -587 165 -45 6 -395 16 -401 11z"/>
</g>
</svg>
